<svg xmlns="http://www.w3.org/2000/svg" viewBox="0 0 40 40" fill="none" role="img" aria-labelledby="title">
  <title id="title">DuckRoost Digital mark</title>
  <!-- Palette matches src/app/globals.css brand tokens -->
  <circle cx="20" cy="21" r="17" fill="#132337" opacity="0.95"/>
  <path
    d="M6 23c4-10 14-14 24-9 2 1 3 3 3 5 0 6-8 11-17 11-6 0-10-3-10-7z"
    fill="#2a7a7a"
    opacity="0.85"
  />
  <ellipse cx="17.5" cy="21" rx="9" ry="7" fill="#d97328"/>
  <circle cx="21" cy="18.5" r="2.2" fill="#0a1522"/>
  <path d="M24.5 19.5 34 16.5 27.5 25.5z" fill="#e8a065"/>
  <path
    d="M10 12c3-4 8-6 13-5 .8 2.5.5 5-1 7-4-1-8-1-12 2z"
    fill="#2a7a7a"
    opacity="0.6"
  />
</svg>
